<?xml version="1.0" encoding="UTF-8" standalone="no"?>
<svg
   xmlns:dc="http://purl.org/dc/elements/1.1/"
   xmlns:cc="http://creativecommons.org/ns#"
   xmlns:rdf="http://www.w3.org/1999/02/22-rdf-syntax-ns#"
   xmlns:svg="http://www.w3.org/2000/svg"
   xmlns="http://www.w3.org/2000/svg"
   id="svg8"
   version="1.1"
   viewBox="0 0 26.458333 26.458333"
   height="100"
   width="100">
  <defs
     id="defs2" />
  <metadata
     id="metadata5">
    <rdf:RDF>
      <cc:Work
         rdf:about="">
        <dc:format>image/svg+xml</dc:format>
        <dc:type
           rdf:resource="http://purl.org/dc/dcmitype/StillImage" />
        <dc:title></dc:title>
      </cc:Work>
    </rdf:RDF>
  </metadata>
  <g
     id="layer1" />
  <g
     style="display:inline"
     id="layer2">
    <path
       id="path883"
       d="M 4.9987458,22.559094 C 4.4502818,22.114975 4.2195599,21.31331 3.6239117,17.7821 3.0576276,14.424973 2.7879068,13.454568 2.3324115,13.135528 1.6720869,12.673018 1.5284957,10.751469 2.1107485,10.169216 c 0.5078921,-0.507893 21.7985245,-0.507893 22.3064155,0 0.582253,0.582253 0.438662,2.503802 -0.221662,2.966312 -0.455495,0.31904 -0.725217,1.289445 -1.291501,4.646572 -0.595646,3.53121 -0.826369,4.332875 -1.374834,4.776994 -0.597743,0.484022 -1.366808,0.53368 -8.26521,0.53368 -6.8984026,0 -7.6674692,-0.04966 -8.2652112,-0.53368 z M 9.5757264,17.339135 V 14.388551 H 8.8380808 c -0.7252721,0 -0.7390891,0.04415 -0.8236335,2.632174 -0.1009908,3.091293 0.00529,3.489956 0.8960779,3.363453 0.6395857,-0.09082 0.6652012,-0.208081 0.6652012,-3.045043 z m 4.4258756,0 v -2.950584 h -0.737645 c -0.72527,0 -0.739088,0.04415 -0.823634,2.632174 -0.100986,3.091293 0.0052,3.489956 0.89608,3.363453 0.639584,-0.09082 0.665199,-0.208081 0.665199,-3.045043 z m 4.425878,0 v -2.950584 h -0.737648 c -0.72527,0 -0.739087,0.04415 -0.823633,2.632174 -0.100986,3.091293 0.0053,3.489956 0.896079,3.363453 0.639585,-0.09082 0.665202,-0.208081 0.665202,-3.045043 z M 4.1187913,7.3809144 C 4.1196942,7.0157788 4.261642,6.2085141 4.4342265,5.5869934 4.8298035,4.1624179 5.9926252,3.6189191 8.6449461,3.6189191 c 1.3211348,0 2.0019519,-0.1334141 2.2585439,-0.4425877 0.260165,-0.313481 0.948732,-0.4425876 2.360467,-0.4425876 1.411733,0 2.100302,0.1291066 2.360467,0.4425876 0.254555,0.3067206 0.931463,0.4425877 2.205037,0.4425877 3.238281,0 4.140579,0.6252202 4.480411,3.1045636 0.172735,1.2602386 0.147094,1.3213123 -0.554722,1.3213123 -0.627603,0 -0.774623,-0.1844398 -0.999584,-1.253999 L 20.491813,5.5367983 18.084701,5.4515361 c -1.666893,-0.059039 -2.517133,-0.217833 -2.764882,-0.5163525 -0.491351,-0.5920418 -3.620373,-0.5920418 -4.111724,0 -0.24775,0.2985195 -1.097989,0.457306 -2.7648811,0.5163525 L 6.0361004,5.5367983 5.7723467,6.790796 C 5.5523054,7.8369667 5.3932891,8.044795 4.8128691,8.044795 c -0.5252727,0 -0.6953203,-0.1626488 -0.6940778,-0.6638806 z"
       style="fill:#000000;stroke-width:0.295058" />
  </g>
</svg>
