<?xml version="1.0" encoding="UTF-8" standalone="no"?>
<svg
   xmlns:dc="http://purl.org/dc/elements/1.1/"
   xmlns:cc="http://creativecommons.org/ns#"
   xmlns:rdf="http://www.w3.org/1999/02/22-rdf-syntax-ns#"
   xmlns:svg="http://www.w3.org/2000/svg"
   xmlns="http://www.w3.org/2000/svg"
   width="100mm"
   height="100mm"
   viewBox="0 0 100 100"
   version="1.1"
   id="svg8">
  <defs
     id="defs2" />
  <metadata
     id="metadata5">
    <rdf:RDF>
      <cc:Work
         rdf:about="">
        <dc:format>image/svg+xml</dc:format>
        <dc:type
           rdf:resource="http://purl.org/dc/dcmitype/StillImage" />
        <dc:title></dc:title>
      </cc:Work>
    </rdf:RDF>
  </metadata>
  <g
     id="layer1"
     style="display:none">
    <g
       id="g936"
       transform="translate(0,-99.999999)">
      <rect
         y="5"
         x="5"
         height="90"
         width="30"
         id="rect871"
         style="opacity:1;fill:#505050;fill-opacity:1;fill-rule:nonzero;stroke:none;stroke-width:0.226826;stroke-linecap:round;stroke-linejoin:round;stroke-miterlimit:4;stroke-dasharray:none;stroke-opacity:1" />
      <rect
         style="opacity:1;fill:#505050;fill-opacity:1;fill-rule:nonzero;stroke:none;stroke-width:0.226826;stroke-linecap:round;stroke-linejoin:round;stroke-miterlimit:4;stroke-dasharray:none;stroke-opacity:1"
         id="rect871-4"
         width="30"
         height="90"
         x="65"
         y="5" />
      <rect
         y="50"
         x="35"
         height="20"
         width="30"
         id="rect888"
         style="opacity:1;fill:#505050;fill-opacity:1;fill-rule:nonzero;stroke:none;stroke-width:0.300062;stroke-linecap:round;stroke-linejoin:round;stroke-miterlimit:4;stroke-dasharray:none;stroke-opacity:1" />
    </g>
    <rect
       style="opacity:1;fill:#dedede;fill-opacity:1;fill-rule:nonzero;stroke:none;stroke-width:0.268384;stroke-linecap:round;stroke-linejoin:round;stroke-miterlimit:4;stroke-dasharray:none;stroke-opacity:1"
       id="rect893"
       width="29.999996"
       height="95"
       x="109.99999"
       y="5" />
    <rect
       style="opacity:1;fill:#dedede;fill-opacity:1;fill-rule:nonzero;stroke:none;stroke-width:0.261916;stroke-linecap:round;stroke-linejoin:round;stroke-miterlimit:4;stroke-dasharray:none;stroke-opacity:1"
       id="rect895"
       width="40"
       height="20"
       x="135"
       y="54.999996" />
    <rect
       style="opacity:1;fill:#dedede;fill-opacity:1;fill-rule:nonzero;stroke:none;stroke-width:0.282902;stroke-linecap:round;stroke-linejoin:round;stroke-miterlimit:4;stroke-dasharray:none;stroke-opacity:1"
       id="rect897"
       width="19.999998"
       height="45"
       x="160"
       y="54.999996" />
    <rect
       style="opacity:1;fill:#fefd00;fill-opacity:0.7;fill-rule:nonzero;stroke:none;stroke-width:6.00001;stroke-linecap:round;stroke-linejoin:round;stroke-miterlimit:4;stroke-dasharray:none;stroke-opacity:0.5"
       id="rect938"
       width="30.000002"
       height="90"
       x="5"
       y="5" />
    <rect
       style="opacity:1;fill:#fefd00;fill-opacity:0.7;fill-rule:nonzero;stroke:none;stroke-width:6.92822;stroke-linecap:round;stroke-linejoin:round;stroke-miterlimit:4;stroke-dasharray:none;stroke-opacity:0.5"
       id="rect940"
       width="30.000002"
       height="60"
       x="55"
       y="35" />
    <rect
       style="opacity:1;fill:#fefd00;fill-opacity:0.7;fill-rule:nonzero;stroke:none;stroke-width:3.20714;stroke-linecap:round;stroke-linejoin:round;stroke-miterlimit:4;stroke-dasharray:none;stroke-opacity:0.5"
       id="rect942"
       width="20"
       height="30.000002"
       x="35"
       y="35" />
  </g>
  <g
     id="layer2">
    <g
       transform="translate(5.0000004)"
       id="g867">
      <path
         style="fill:#00fe62;fill-opacity:0.7;stroke:none;stroke-width:0.264583px;stroke-linecap:butt;stroke-linejoin:miter;stroke-opacity:1"
         d="m 34.999998,79.999998 c 0,0 0,-14.999999 10.000001,-14.999999 9.999999,0 9.999999,14.999999 9.999999,14.999999 0,0 0,14.999999 15.000002,14.999999 14.999999,0 14.999999,-14.999999 14.999999,-14.999999 0,0 0,-45 -40,-45 -39.999999,0 -39.9999991,45 -39.9999991,45 0,0 1e-7,14.999999 14.9999991,14.999999 14.999999,0 14.999999,-14.999999 14.999999,-14.999999 z"
         id="path965-8" />
      <path
         style="fill:#de00fe;fill-opacity:0.7;stroke:none;stroke-width:0.264583px;stroke-linecap:butt;stroke-linejoin:miter;stroke-opacity:1"
         d="m 4.9999999,20 c 0,0 0,-14.9999996 15.0000001,-14.9999996 C 34.999998,5.0000004 34.999998,20 34.999998,20 l 3e-6,59.999998 c 0,0 -3e-6,14.999999 -15.000001,14.999999 -15.0000001,0 -15.0000002,-14.999999 -15.0000002,-14.999999 z"
         id="path944-1-9-5" />
      <path
         id="path944-1-9-5-8"
         d="m 54.999999,20 c 0,0 0,-15.0000004 15,-15.0000004 C 84.999997,4.9999996 84.999997,20 84.999997,20 L 85,79.999998 c 0,0 -3e-6,14.999999 -15.000001,14.999999 -15,0 -15,-14.999999 -15,-14.999999 z"
         style="fill:#00ddfe;fill-opacity:0.698039;stroke:none;stroke-width:0.264583px;stroke-linecap:butt;stroke-linejoin:miter;stroke-opacity:1" />
    </g>
  </g>
</svg>
