<?xml version="1.0" encoding="UTF-8" standalone="no"?>
<svg
   xmlns:dc="http://purl.org/dc/elements/1.1/"
   xmlns:cc="http://creativecommons.org/ns#"
   xmlns:rdf="http://www.w3.org/1999/02/22-rdf-syntax-ns#"
   xmlns:svg="http://www.w3.org/2000/svg"
   xmlns="http://www.w3.org/2000/svg"
   id="svg8"
   version="1.1"
   viewBox="0 0 26.458333 26.458333"
   height="100"
   width="100">
  <defs
     id="defs2" />
  <metadata
     id="metadata5">
    <rdf:RDF>
      <cc:Work
         rdf:about="">
        <dc:format>image/svg+xml</dc:format>
        <dc:type
           rdf:resource="http://purl.org/dc/dcmitype/StillImage" />
        <dc:title></dc:title>
      </cc:Work>
    </rdf:RDF>
  </metadata>
  <g
     id="layer1" />
  <g
     style="display:inline"
     id="layer2">
    <path
       style="fill:#000000;stroke-width:0.0561036"
       d="m 22.706207,23.492569 c -0.124169,-0.05314 -1.200305,-1.087141 -2.92723,-2.812611 l -2.730868,-2.728568 -0.130414,0.09546 c -0.554437,0.405785 -1.304612,0.86631 -1.741473,1.069073 C 12.72149,20.255256 9.9767684,20.245576 7.5084513,19.088883 5.7571447,18.268191 4.1029407,16.602947 3.2747709,14.826951 1.663972,11.372622 2.3649137,7.3922731 5.0583334,4.6988543 7.7537991,2.0033872 11.729477,1.3032686 15.186432,2.9152917 c 1.798196,0.8385233 3.446792,2.4871173 4.285315,4.2853142 1.142684,2.4504674 1.135252,5.2383521 -0.0204,7.6562761 -0.226206,0.473277 -0.64128,1.148974 -1.044908,1.700995 -0.09503,0.129966 -0.09242,0.132795 2.658724,2.889342 2.964028,2.969848 2.942605,2.944119 2.852312,3.42543 -0.07094,0.378148 -0.476402,0.711543 -0.858806,0.706164 -0.08585,-0.0011 -0.24445,-0.04002 -0.35245,-0.08625 z M 12.586165,18.108335 c 2.249655,-0.391535 4.219525,-1.853927 5.235898,-3.887024 0.249533,-0.499151 0.543522,-1.407241 0.645752,-1.994626 0.111125,-0.638511 0.111125,-1.787303 0,-2.4258127 C 18.014522,7.1963657 16.207676,5.0765533 13.701082,4.2084865 12.948308,3.9477916 12.233758,3.8325056 11.370721,3.8325056 9.7821245,3.8325056 8.2924501,4.3263354 7.0356249,5.269598 5.8833378,6.1344041 5.0228493,7.3360151 4.5561893,8.7319579 4.2967676,9.5079773 4.1919848,10.164469 4.1919848,11.013779 c 0,1.962496 0.7199493,3.703466 2.1003204,5.078956 0.56948,0.567467 1.2202829,1.043333 1.8734214,1.369847 0.4773889,0.238653 1.4021049,0.543336 1.9482744,0.641933 0.607895,0.109734 1.852531,0.111655 2.472164,0.0038 z"
       id="path849" />
  </g>
</svg>
